<svg xmlns="http://www.w3.org/2000/svg" version="1.1" xmlns:xlink="http://www.w3.org/1999/xlink" xmlns:svgjs="http://svgjs.dev/svgjs" width="1000" height="181" viewBox="0 0 1000 181"><g transform="matrix(1,0,0,1,-0.6060606060606233,-0.10005045483666208)"><svg viewBox="0 0 396 72" data-background-color="#ffffff" preserveAspectRatio="xMidYMid meet" height="181" width="1000" xmlns="http://www.w3.org/2000/svg" xmlns:xlink="http://www.w3.org/1999/xlink"><g id="tight-bounds" transform="matrix(1,0,0,1,0.2400000000000091,0.04024361538702692)"><svg viewBox="0 0 395.52 71.91995730865587" height="71.91995730865587" width="395.52"><g><svg viewBox="0 0 489.2857106011567 88.96998234772083" height="71.91995730865587" width="395.52"><g transform="matrix(1,0,0,1,0,12.296140830980228)"><svg viewBox="0 0 395.52 64.37770068576037" height="64.37770068576037" width="395.52"><g id="textblocktransform"><svg viewBox="0 0 395.52 64.37770068576037" height="64.37770068576037" width="395.52" id="textblock"><g><svg viewBox="0 0 395.52 64.37770068576037" height="64.37770068576037" width="395.52"><g transform="matrix(1,0,0,1,0,0)"><svg width="395.52" viewBox="-0.24 -37.7 242.06 39.410000000000004" height="64.37770068576037" data-palette-color="#8bc53f"><g class="wordmark-text-0" data-fill-palette-color="primary" id="text-0"><path d="M10.99-13.33L10.99-13.33Q11.08-13.09 11.72-12.28 12.35-11.47 13.16-10.52 13.96-9.57 14.75-8.69 15.53-7.81 15.82-7.42L15.82-7.42Q16.75-6.05 17.72-4.74 18.7-3.42 19.58-2L19.58-2Q19.82-1.76 19.97-1.39 20.12-1.03 20.12-0.63L20.12-0.63Q20.12-0.2 19.9-0.17 19.68-0.15 19.43-0.05L19.43-0.05Q18.95 0.29 18.55 0.34 18.16 0.39 17.92 0.39L17.92 0.39Q17.38 0.39 16.75 0.37 16.11 0.34 15.67 0.44L15.67 0.44Q15.53 0.49 15.33 0.61 15.14 0.73 15.04 0.73L15.04 0.73Q14.65 0.73 14.48 0.61 14.31 0.49 14.01 0.39L14.01 0.39Q13.62-0.05 13.31-0.54 12.99-1.03 12.65-1.51L12.65-1.51Q12.35-1.86 12.01-2.12 11.67-2.39 11.38-2.78L11.38-2.78Q10.6-3.91 9.79-4.93 8.98-5.96 8.15-6.98L8.15-6.98Q7.76-7.52 7.3-8.01 6.84-8.5 6.45-8.98L6.45-8.98Q6.05-9.52 5.71-10.11 5.37-10.69 4.98-11.23L4.98-11.23Q4.69-11.72 4.15-12.43 3.61-13.13 3.03-13.87 2.44-14.6 1.83-15.26 1.22-15.92 0.78-16.26L0.78-16.26Q0.78-16.6 0.59-16.75 0.39-16.89 0.15-17.09L0.15-17.09Q0.05-17.33-0.1-17.55-0.24-17.77-0.24-18.07L-0.24-18.07Q-0.24-18.26-0.2-18.41-0.15-18.55-0.1-18.7L-0.1-18.7Q0-18.9 0.02-19.07 0.05-19.24 0.15-19.43L0.15-19.43Q0.39-20.07 0.85-20.56 1.32-21.04 1.56-21.68L1.56-21.68Q1.61-21.88 1.61-22.05 1.61-22.22 1.71-22.41L1.71-22.41Q1.86-22.71 2.15-23 2.44-23.29 2.69-23.63L2.69-23.63Q2.93-24.07 3.17-24.51 3.42-24.95 3.66-25.39L3.66-25.39Q4.35-26.51 5.18-27.56 6.01-28.61 6.74-29.64L6.74-29.64Q7.42-30.62 8.01-31.57 8.59-32.52 9.28-33.5L9.28-33.5Q9.62-33.98 10.06-34.59 10.5-35.21 10.96-35.79 11.43-36.38 11.91-36.89 12.4-37.4 12.89-37.65L12.89-37.65Q13.72-37.74 13.96-37.38 14.21-37.01 14.65-37.01L14.65-37.01Q15.33-36.87 15.58-36.57 15.82-36.28 16.06-36.04L16.06-36.04Q16.7-36.04 17.14-35.79 17.58-35.55 18.02-35.06L18.02-35.06Q17.82-34.52 17.5-34.08 17.19-33.64 16.94-33.15L16.94-33.15Q16.55-33.01 16.38-32.67 16.21-32.32 15.87-32.08L15.87-32.08Q15.33-31.25 14.79-30.44 14.26-29.64 13.72-28.91L13.72-28.91Q13.48-28.61 13.16-28.44 12.84-28.27 12.65-27.93L12.65-27.93Q12.55-27.78 12.5-27.61 12.45-27.44 12.35-27.29L12.35-27.29Q11.77-26.37 11.04-25.49 10.3-24.61 9.77-23.63L9.77-23.63Q9.52-23.29 9.38-22.92 9.23-22.56 9.03-22.22L9.03-22.22Q8.84-21.92 8.47-21.39 8.11-20.85 7.74-20.29 7.37-19.73 7.1-19.21 6.84-18.7 6.84-18.36L6.84-18.36Q6.88-18.12 7.47-17.38 8.06-16.65 8.76-15.82 9.47-14.99 10.13-14.26 10.79-13.53 10.99-13.33ZM32.32-37.01L32.42-36.96Q32.66-36.08 32.91-35.23 33.15-34.38 33.49-33.54L33.49-33.54Q34.23-33.45 34.4-33.4 34.57-33.35 34.81-33.25L34.81-33.25Q35.35-31.98 35.47-30.54 35.59-29.1 35.84-27.73L35.84-27.73Q36.77-26.51 37.18-25.12 37.6-23.73 38.13-22.31L38.13-22.31Q38.28-21.83 38.33-21.7 38.38-21.58 38.38-21.48L38.38-21.48Q38.67-20.65 38.96-19.78 39.26-18.9 39.6-18.07L39.6-18.07Q39.74-17.63 39.91-17.21 40.09-16.8 40.23-16.41L40.23-16.41Q40.38-15.92 40.5-15.41 40.62-14.89 40.77-14.4L40.77-14.4Q41.11-13.43 41.5-12.45 41.89-11.47 42.28-10.5L42.28-10.5Q42.43-10.16 42.84-8.98 43.26-7.81 43.7-6.52 44.14-5.22 44.5-4.13 44.87-3.03 44.87-2.78L44.87-2.78Q44.87-2.39 44.94-1.98 45.02-1.56 45.07-1.12L45.07-1.12Q44.87-0.63 44.58-0.59 44.28-0.54 44.04-0.63L44.04-0.63Q43.8-0.54 43.58-0.44 43.36-0.34 43.16-0.24L43.16-0.24Q43.02-0.2 42.92-0.1 42.82 0 42.67 0L42.67 0Q42.09 0 41.92 0.12 41.75 0.24 41.4 0.24L41.4 0.24Q40.96 0.1 40.84 0.22 40.72 0.34 40.62 0.39L40.62 0.39Q40.43 0.49 40.18 0.49 39.94 0.49 39.69 0.54L39.69 0.54Q39.6 0.34 39.52 0.15 39.45-0.05 39.3-0.29L39.3-0.29Q38.77-1.07 38.55-1.81 38.33-2.54 38.18-2.98L38.18-2.98Q37.94-3.52 37.77-4.05 37.6-4.59 37.35-5.13L37.35-5.13Q37.06-5.03 36.81-4.91 36.57-4.79 36.42-4.59L36.42-4.59Q35.84-4.59 35.84-4.44 35.84-4.3 35.74-4.15L35.74-4.15Q35.45-4.05 35.28-3.96 35.1-3.86 34.71-3.91L34.71-3.91Q34.47-3.66 34.23-3.49 33.98-3.32 33.59-3.27L33.59-3.27Q33.2-2.88 32.79-2.61 32.37-2.34 31.83-2.49L31.83-2.49Q31.15-2.34 30.47-2.22 29.78-2.1 29.1-2.1L29.1-2.1Q28.32-2.34 28.12-2.54 27.93-2.73 27.54-2.73L27.54-2.73Q27.59-3.42 27.24-3.66L27.24-3.66Q27.24-3.81 27.27-4.13 27.29-4.44 27.39-4.54L27.39-4.54Q28.02-4.83 28.12-5.18 28.22-5.52 28.66-5.62L28.66-5.62Q28.76-5.81 28.88-5.98 29-6.15 29.1-6.35L29.1-6.35Q29.34-6.45 29.51-6.49 29.68-6.54 29.78-6.79L29.78-6.79Q30.03-6.79 30.52-7.1 31-7.42 31.15-7.62L31.15-7.62Q31.54-7.76 31.64-7.89 31.74-8.01 31.88-8.11L31.88-8.11Q32.37-8.06 32.52-8.2L32.52-8.2Q32.91-8.01 33.4-8.01L33.4-8.01Q33.59-8.01 33.74-8.03 33.88-8.06 34.08-8.06L34.08-8.06Q34.47-8.45 35.08-8.57 35.69-8.69 36.08-9.08L36.08-9.08Q35.94-9.47 35.84-10.03 35.74-10.6 35.5-10.94L35.5-10.94Q35.4-11.57 35.18-12.16 34.96-12.74 34.81-13.28L34.81-13.28Q34.27-15.33 33.54-17.29 32.81-19.24 32.32-21.29L32.32-21.29Q32.22-21.53 32.1-21.8 31.98-22.07 31.88-22.31L31.88-22.31Q31.64-21.73 31.64-21.66 31.64-21.58 31.54-21.48L31.54-21.48Q31.49-21.24 31.44-21.07 31.39-20.9 31.3-20.65L31.3-20.65Q31.15-20.26 31.03-19.8 30.91-19.34 30.81-18.95L30.81-18.95Q30.56-18.12 30.37-17.21 30.17-16.31 29.93-15.43L29.93-15.43Q29.44-13.92 28.93-12.43 28.42-10.94 27.93-9.42L27.93-9.42Q27.83-8.74 27.71-8.37 27.59-8.01 27.46-7.64 27.34-7.28 27.27-6.93 27.19-6.59 27.19-6.4L27.19-6.4Q26.51-4.83 26.05-3.22 25.58-1.61 24.9-0.1L24.9-0.1Q24.7 0 24.56 0.15 24.41 0.29 24.22 0.29L24.22 0.29Q23.83 0.29 23.8 0.1 23.78-0.1 23.58-0.1L23.58-0.1Q23.39-0.1 23.24-0.02 23.09 0.05 22.95 0.15L22.95 0.15Q22.7 0.05 22.39 0.02 22.07 0 21.92-0.2L21.92-0.2Q21.58 0.05 21.24 0.05L21.24 0.05Q20.85 0.05 20.46-0.2L20.46-0.2Q20.16-0.1 19.87-0.1L19.87-0.1Q19.72-0.1 19.53-0.15 19.33-0.2 19.24-0.29L19.24-0.29Q19.19-0.49 19.19-0.68 19.19-0.88 19.19-1.12L19.19-1.12Q19.19-1.61 19.09-1.86L19.09-1.86Q19.97-4.35 20.8-6.91 21.63-9.47 22.46-12.11L22.46-12.11Q22.9-13.33 23.31-14.5 23.73-15.67 24.12-16.89L24.12-16.89Q24.31-17.58 24.46-18.19 24.61-18.8 24.85-19.38L24.85-19.38Q25.24-20.65 25.66-21.95 26.07-23.24 26.41-24.51L26.41-24.51Q26.61-24.66 26.66-24.85 26.71-25.05 26.8-25.29L26.8-25.29 26.76-25.93Q27.1-26.42 27.22-26.78 27.34-27.15 27.39-27.54L27.39-27.54Q27.63-28.13 27.83-28.81 28.02-29.49 28.12-30.08L28.12-30.08Q28.22-30.86 28.24-31.86 28.27-32.86 28.51-33.54L28.51-33.54Q28.61-33.74 28.68-33.81 28.76-33.89 28.76-34.13L28.76-34.13Q28.85-34.23 28.98-34.35 29.1-34.47 29.15-34.62L29.15-34.62Q29.39-35.01 29.32-35.3 29.25-35.6 29.25-35.94L29.25-35.94Q29.68-36.18 29.64-36.38 29.59-36.57 29.59-36.77L29.59-36.77Q29.59-37.01 29.9-37.23 30.22-37.45 30.32-37.7L30.32-37.7Q30.61-37.65 30.91-37.62 31.2-37.6 31.49-37.65L31.49-37.65Q31.83-37.01 32.32-37.01L32.32-37.01ZM81.73-0.15L81.73-0.15Q81.49 0.1 81.2 0.15 80.9 0.2 80.61 0.2L80.61 0.2Q79.88 0.54 79.05 0.54L79.05 0.54Q78.51 0.24 78.46 0.34 78.41 0.44 78.27 0.54L78.27 0.54Q77.53 0.88 76.95 0.9 76.36 0.93 75.97 1.17L75.97 1.17Q75.58 0.88 75.56 0.32 75.53-0.24 75.43-0.63L75.43-0.63Q75.19-0.98 75.09-1.49 75-2 74.95-2.54 74.9-3.08 74.82-3.59 74.75-4.1 74.56-4.49L74.56-4.49Q74.51-4.74 74.53-4.93 74.56-5.13 74.46-5.37L74.46-5.37Q74.51-6.2 74.41-6.69 74.31-7.18 74.21-7.71L74.21-7.71Q74.16-8.01 74.16-8.37 74.16-8.74 73.87-8.94L73.87-8.94Q74.02-9.62 73.92-9.96 73.82-10.3 73.77-10.6L73.77-10.6Q73.73-10.99 73.73-11.45 73.73-11.91 73.63-12.3L73.63-12.3Q73.33-14.65 72.99-16.99 72.65-19.34 72.36-21.68L72.36-21.68Q72.07-21.44 71.94-20.95 71.82-20.46 71.72-20.07L71.72-20.07Q71.43-19.19 71.19-18.26 70.94-17.33 70.7-16.46L70.7-16.46Q70.6-16.06 70.53-15.55 70.45-15.04 70.31-14.65L70.31-14.65Q69.82-13.23 69.45-12.21 69.09-11.18 68.75-10.11L68.75-10.11Q68.65-9.52 68.55-8.98 68.45-8.45 68.35-7.91L68.35-7.91Q68.31-7.62 68.21-7.08 68.11-6.54 68.01-6.3L68.01-6.3Q67.91-6.05 67.84-5.96 67.77-5.86 67.82-5.62L67.82-5.62Q67.33-4.88 67.16-4 66.99-3.13 66.55-2.29L66.55-2.29Q66.55-1.71 66.11-1.27L66.11-1.27Q65.86-1.22 65.64-1.17 65.42-1.12 65.18-0.98L65.18-0.98Q64.94-1.07 64.62-1.1 64.3-1.12 64.01-1.12L64.01-1.12Q63.76-1.17 63.57-1.29 63.37-1.42 63.13-1.46L63.13-1.46Q62.89-1.76 62.59-1.98 62.3-2.2 62.01-2.44L62.01-2.44Q61.71-3.17 61.47-3.42L61.47-3.42Q61.32-3.96 61.08-4.42 60.83-4.88 60.74-5.47L60.74-5.47Q60.59-6.01 60.37-6.47 60.15-6.93 59.91-7.47L59.91-7.47Q59.81-7.81 59.69-8.13 59.57-8.45 59.42-8.79L59.42-8.79Q59.37-9.18 59.15-9.77 58.93-10.35 58.83-10.79L58.83-10.79Q58.83-10.84 58.66-11.3 58.49-11.77 58.32-12.3 58.15-12.84 57.98-13.28 57.81-13.72 57.76-13.77L57.76-13.77Q57.66-14.01 57.59-14.23 57.51-14.45 57.42-14.75L57.42-14.75Q57.22-15.38 56.93-16.04 56.64-16.7 56.34-17.29L56.34-17.29Q56.1-17.77 56-18.24 55.9-18.7 55.76-19.14L55.76-19.14Q55.66-19.38 55.59-19.58 55.51-19.78 55.41-20.02L55.41-20.02Q55.32-20.31 55.22-20.63 55.12-20.95 55.02-21.29L55.02-21.29Q54.78-21.19 54.8-20.87 54.83-20.56 54.78-20.31L54.78-20.31Q54.68-19.78 54.68-19.26 54.68-18.75 54.63-18.21L54.63-18.21Q54.54-17.63 54.44-17.09 54.34-16.55 54.29-16.02L54.29-16.02Q54.29-14.7 54.15-13.38L54.15-13.38Q54.05-12.21 53.9-11.01 53.75-9.81 53.71-8.54L53.71-8.54Q53.71-7.62 53.51-6.71 53.32-5.81 53.41-4.83L53.41-4.83Q53.32-4.64 53.32-4.54 53.32-4.44 53.32-4.25L53.32-4.25Q53.32-4 53.29-3.71 53.27-3.42 53.27-3.17L53.27-3.17Q53.27-2.73 53.36-2.59L53.36-2.59Q53.22-2.15 53.22-1.64 53.22-1.12 53.22-0.63L53.22-0.63Q53.12-0.44 53.1-0.24 53.07-0.05 52.92 0.15L52.92 0.15Q52.97 0.98 52.44 0.98L52.44 0.98Q52.29 0.98 52.12 0.9 51.95 0.83 51.85 0.68L51.85 0.68Q51.31 0.73 51.24 0.44 51.17 0.15 50.92 0.2L50.92 0.2Q50.34 0.44 50.26 0.34 50.19 0.24 49.95 0.29L49.95 0.29Q49.56-0.1 49.43-0.05 49.31 0 49.21 0L49.21 0Q48.77-0.15 48.73-0.07 48.68 0 48.53 0L48.53 0Q48.29-0.24 47.87-0.24 47.46-0.24 47.16-0.29L47.16-0.29Q47.11-0.49 47.09-0.66 47.07-0.83 47.07-1.07L47.07-1.07Q47.07-1.37 47.09-1.64 47.11-1.9 47.11-2.2L47.11-2.2Q47.11-2.44 47.09-2.71 47.07-2.98 47.07-3.32L47.07-3.32Q47.07-3.66 47.11-3.98 47.16-4.3 47.16-4.69L47.16-4.69Q47.16-4.83 47.11-4.96 47.07-5.08 47.07-5.27L47.07-5.27Q47.36-5.91 47.33-6.27 47.31-6.64 47.36-6.98L47.36-6.98Q47.46-7.81 47.53-8.62 47.6-9.42 47.7-10.25L47.7-10.25Q47.7-11.62 47.77-12.52 47.85-13.43 47.99-14.36L47.99-14.36Q48.09-14.79 48.16-15.19 48.24-15.58 48.33-16.02L48.33-16.02Q48.43-16.75 48.46-17.55 48.48-18.36 48.58-19.14L48.58-19.14Q48.68-20.36 48.82-21.56 48.97-22.75 49.07-23.93L49.07-23.93Q49.16-24.85 49.29-25.76 49.41-26.66 49.41-27.49L49.41-27.49Q49.41-27.93 49.53-28.61 49.65-29.3 49.7-29.79L49.7-29.79Q49.8-30.96 49.87-32.08 49.95-33.2 49.95-34.33L49.95-34.33 49.95-34.86Q49.95-34.96 50.04-35.06 50.14-35.16 50.14-35.4L50.14-35.4Q50.14-35.84 50.36-36.01 50.58-36.18 50.73-36.57L50.73-36.57Q50.97-36.57 51.29-36.52 51.61-36.47 51.75-36.23L51.75-36.23Q52.09-36.33 52.44-36.33 52.78-36.33 53.02-36.57L53.02-36.57Q53.32-36.57 53.46-36.43 53.61-36.28 53.85-36.18L53.85-36.18Q54.05-36.28 54.24-36.35 54.44-36.43 54.63-36.52L54.63-36.52Q54.78-36.43 54.85-36.3 54.93-36.18 55.07-36.13L55.07-36.13Q55.81-36.33 56.05-36.18L56.05-36.18Q56.15-35.99 56.17-35.79 56.2-35.6 56.25-35.4L56.25-35.4Q56.73-34.91 56.88-34.3 57.03-33.69 57.42-33.2L57.42-33.2Q57.51-32.91 57.64-32.62 57.76-32.32 57.86-31.93L57.86-31.93 58-31.35Q58.2-30.86 58.49-30.18L58.49-30.18Q58.74-29.25 58.93-28.27 59.13-27.29 59.57-26.46L59.57-26.46Q59.61-26.17 59.74-25.76 59.86-25.34 59.96-25.05L59.96-25.05Q60.3-24.22 60.66-23.41 61.03-22.61 61.32-21.68L61.32-21.68Q61.62-20.75 61.84-19.78 62.06-18.8 62.4-17.87L62.4-17.87Q62.69-16.99 62.84-16.6 62.98-16.21 63.23-15.82L63.23-15.82Q63.23-15.67 63.3-15.33 63.37-14.99 63.52-14.62 63.67-14.26 63.81-13.94 63.96-13.62 64.11-13.57L64.11-13.57Q64.25-13.67 64.28-13.87 64.3-14.06 64.45-14.21L64.45-14.21Q64.5-14.75 64.62-15.53 64.74-16.31 64.99-16.8L64.99-16.8Q64.99-17.04 65.11-17.7 65.23-18.36 65.42-19.12 65.62-19.87 65.79-20.51 65.96-21.14 66.11-21.29L66.11-21.29Q66.21-21.92 66.28-22.07 66.35-22.22 66.45-22.31L66.45-22.31Q66.5-22.71 66.65-23.05 66.79-23.39 66.84-23.78L66.84-23.78Q66.94-24.61 67.08-25.15 67.23-25.68 67.48-26.46L67.48-26.46Q67.67-27.15 67.84-27.86 68.01-28.56 68.26-29.25L68.26-29.25Q68.84-31.1 69.31-32.54 69.77-33.98 70.45-35.35L70.45-35.35Q70.6-35.79 70.7-35.89 70.8-35.99 70.89-36.08L70.89-36.08Q71.28-36.23 71.7-36.23 72.11-36.23 72.55-36.18L72.55-36.18Q73.04-36.38 73.29-36.62L73.29-36.62Q73.48-36.38 73.87-36.38L73.87-36.38Q74.36-36.38 74.56-36.67L74.56-36.67Q74.75-36.57 74.87-36.62 75-36.67 75.24-36.57L75.24-36.57Q75.34-36.67 75.48-36.79 75.63-36.91 75.78-36.91L75.78-36.91Q76.17-36.43 76.39-36.16 76.61-35.89 76.7-35.55L76.7-35.55Q76.85-35.11 76.87-34.59 76.9-34.08 77.14-33.64L77.14-33.64Q77.09-33.01 77.22-31.71 77.34-30.42 77.51-28.98 77.68-27.54 77.88-26.32 78.07-25.1 78.22-24.8L78.22-24.8Q78.17-24.17 78.27-23.73 78.36-23.29 78.36-22.85L78.36-22.85Q78.36-22.71 78.41-22.24 78.46-21.78 78.51-21.26 78.56-20.75 78.63-20.29 78.71-19.82 78.75-19.63L78.75-19.63Q78.75-18.75 79.05-18.26L79.05-18.26Q79.29-17.04 79.46-15.82 79.63-14.6 79.78-13.33L79.78-13.33Q79.88-12.7 79.9-12.11 79.93-11.52 80.02-10.89L80.02-10.89Q80.07-10.64 80.15-10.4 80.22-10.16 80.27-9.91L80.27-9.91Q80.37-9.42 80.41-8.98 80.46-8.54 80.56-8.11L80.56-8.11Q80.61-7.86 80.71-7.59 80.81-7.32 80.71-7.03L80.71-7.03Q80.81-6.69 80.78-6.3 80.76-5.91 80.95-5.62L80.95-5.62Q80.95-4.59 81.1-3.81L81.1-3.81Q81.15-3.22 81.39-2.64L81.39-2.64Q81.49-2.05 81.56-1.42 81.64-0.78 81.73-0.15ZM90.13-35.5L90.13-35.5Q90.32-35.55 90.47-35.64 90.62-35.74 90.81-35.74L90.81-35.74Q90.96-35.69 91.03-35.55 91.11-35.4 91.25-35.3L91.25-35.3Q91.4-35.4 91.52-35.5 91.64-35.6 91.79-35.64L91.79-35.64Q92.28-35.5 92.33-35.16L92.33-35.16Q92.57-35.06 92.77-34.94 92.96-34.81 93.21-34.77L93.21-34.77Q93.3-34.57 93.45-34.47 93.6-34.38 93.79-34.18L93.79-34.18Q94.28-34.08 95.09-33.64 95.89-33.2 96.38-32.96L96.38-32.96Q96.87-32.71 97.36-32.47 97.84-32.23 98.28-31.93L98.28-31.93Q98.72-31.69 99.16-31.37 99.6-31.05 100.09-30.86L100.09-30.86Q100.53-30.32 101.21-30.18 101.9-30.03 102.43-29.64L102.43-29.64Q102.87-29.39 103.26-29.13 103.65-28.86 104.05-28.61L104.05-28.61Q104.19-28.37 104.41-28.22 104.63-28.08 104.83-27.83L104.83-27.83Q105.8-27.29 105.95-27L105.95-27Q106.1-26.9 106.39-26.71 106.68-26.51 106.97-26.29 107.27-26.07 107.51-25.85 107.76-25.63 107.81-25.44L107.81-25.44Q107.61-25 107.61-24.73 107.61-24.46 107.41-24.27L107.41-24.27Q107.71-23.88 107.71-23.54L107.71-23.54Q107.46-22.95 106.88-22.56L106.88-22.56Q106.73-22.17 106.41-21.95 106.1-21.73 106-21.34L106-21.34Q105.61-21.09 105.53-20.95 105.46-20.8 105.36-20.65L105.36-20.65Q104.44-19.68 103.63-18.97 102.82-18.26 102.14-17.43L102.14-17.43Q101.65-17.19 101.31-16.82 100.97-16.46 100.68-16.02L100.68-16.02Q100.29-15.63 99.92-15.26 99.55-14.89 99.16-14.55L99.16-14.55Q99.06-14.36 98.85-14.23 98.63-14.11 98.53-13.87L98.53-13.87Q97.99-13.62 97.65-13.18 97.31-12.74 96.82-12.45L96.82-12.45 96.48-11.96Q96.33-11.87 96.06-11.65 95.79-11.43 95.52-11.16 95.26-10.89 95.06-10.64 94.87-10.4 94.82-10.25L94.82-10.25Q94.67-10.21 94.35-9.96 94.04-9.72 93.72-9.42 93.4-9.13 93.13-8.84 92.86-8.54 92.81-8.45L92.81-8.45 92.33-8.11Q92.38-6.79 92.4-5.44 92.42-4.1 92.42-2.78L92.42-2.78 92.42-1.12 92.08-0.68Q91.84-0.68 91.69-0.78 91.55-0.88 91.35-0.88L91.35-0.88Q91.15-0.88 90.98-0.68 90.81-0.49 90.67-0.39L90.67-0.39Q90.32-0.34 90.1-0.22 89.89-0.1 89.64 0L89.64 0Q89.35-0.15 89.06-0.15L89.06-0.15Q88.42 0 88.44-0.1 88.47-0.2 88.22-0.2L88.22-0.2Q87.83 0.2 87.74 0.2L87.74 0.2Q87.54 0.2 87.37 0.24 87.2 0.29 87 0.29L87 0.29Q86.81-0.1 86.69-0.51 86.56-0.93 86.22-1.32L86.22-1.32Q86.37-1.81 86.17-2L86.17-2Q86.47-2.54 86.42-3.22 86.37-3.91 86.37-4.49L86.37-4.49Q86.37-4.83 86.39-5.15 86.42-5.47 86.42-5.76L86.42-5.76Q86.42-6.35 86.32-6.96 86.22-7.57 86.22-8.2L86.22-8.2Q86.22-9.67 86.32-11.16 86.42-12.65 86.42-14.11L86.42-14.11Q86.42-14.94 86.35-15.82 86.27-16.7 86.27-17.53L86.27-17.53Q86.27-18.07 86.32-18.53 86.37-18.99 86.42-19.43L86.42-19.43Q86.42-21.68 86.49-23.75 86.56-25.83 86.56-27.88L86.56-27.88Q86.56-28.56 86.54-29.17 86.52-29.79 86.52-30.47L86.52-30.47Q86.52-30.81 86.56-31.15 86.61-31.49 86.61-31.84L86.61-31.84Q86.76-33.35 86.76-34.86L86.76-34.86 86.71-35.64Q86.91-35.94 87.3-35.94L87.3-35.94Q87.83-35.94 88.13-35.6L88.13-35.6Q88.47-35.64 88.79-35.72 89.1-35.79 89.4-35.79L89.4-35.79Q89.84-35.79 90.13-35.5ZM93.11-27.88L93.01-27.73Q93.01-27.49 92.96-27.37 92.91-27.25 92.86-27.15L92.86-27.15Q92.86-27 92.89-26.83 92.91-26.66 92.91-26.46L92.91-26.46Q92.91-25.34 92.89-24.24 92.86-23.14 92.86-22.07L92.86-22.07 92.77-19.48Q92.77-19.24 92.81-18.95 92.86-18.65 92.86-18.41L92.86-18.41Q92.86-18.16 92.81-17.92 92.77-17.68 92.77-17.43L92.77-17.43Q92.77-16.8 92.91-16.16L92.91-16.16Q93.16-16.26 93.25-16.48 93.35-16.7 93.5-16.85L93.5-16.85Q94.62-17.87 95.6-18.99 96.57-20.12 97.6-21.24L97.6-21.24Q98.48-22.17 99.11-22.75 99.75-23.34 100.09-24.17L100.09-24.17Q99.26-24.71 98.38-25.27 97.5-25.83 96.53-26.22L96.53-26.22Q96.48-26.32 96.26-26.46 96.04-26.61 95.79-26.73 95.55-26.86 95.31-26.95 95.06-27.05 94.96-27.05L94.96-27.05Q94.52-27.44 94.04-27.54L94.04-27.54Q93.69-27.54 93.45-27.66 93.21-27.78 93.11-27.88L93.11-27.88ZM130.56-5.86L130.56-5.86Q130.07-5.81 129.97-5.91L129.97-5.91Q129.78-5.81 129.6-5.71 129.43-5.62 129.24-5.47L129.24-5.47Q128.55-5.22 127.9-4.83 127.24-4.44 126.55-4.1L126.55-4.1Q126.16-3.91 125.8-3.78 125.43-3.66 125.04-3.47L125.04-3.47Q124.45-3.17 123.87-2.86 123.28-2.54 122.65-2.29L122.65-2.29Q122.3-2.2 121.99-2.1 121.67-2 121.33-1.9L121.33-1.9Q120.94-1.76 120.62-1.59 120.3-1.42 119.96-1.27L119.96-1.27Q119.72-1.17 119.45-1.1 119.18-1.03 118.89-0.88L118.89-0.88Q118.64-0.78 118.47-0.63 118.3-0.49 118.06-0.39L118.06-0.39Q117.67-0.24 117.25-0.1 116.84 0.05 116.45 0.24L116.45 0.24Q116.05 0.44 115.88 0.61 115.71 0.78 115.22 0.93L115.22 0.93Q114.74 1.22 114.69 1.25 114.64 1.27 114.54 1.27L114.54 1.27Q114.39 1.37 114.27 1.44 114.15 1.51 114 1.61L114 1.61Q113.71 1.61 113.42 1.66 113.12 1.71 112.83 1.71L112.83 1.71Q112.49 1.51 112.37 1.32 112.25 1.12 112.25 0.78L112.25 0.78Q112.05 0.54 111.88 0.24 111.71-0.05 111.51-0.29L111.51-0.29Q111.17-0.1 111.1-0.32 111.03-0.54 110.98-0.81 110.93-1.07 110.88-1.34 110.83-1.61 110.78-1.71L110.78-1.71Q110.54-2.64 110.54-3.08L110.54-3.08Q110.54-3.32 110.63-3.39 110.73-3.47 110.73-3.61L110.73-3.61Q110.78-4.1 110.83-4.74 110.88-5.37 110.88-6.05 110.88-6.74 110.88-7.42 110.88-8.11 110.88-8.64L110.88-8.64Q110.88-10.84 110.83-12.92 110.78-14.99 110.78-17.09L110.78-17.09Q110.78-18.07 110.83-19.04 110.88-20.02 110.88-21L110.88-21Q110.88-23.39 110.95-25.73 111.03-28.08 111.03-30.47L111.03-30.47Q111.03-31.45 110.93-32.45 110.83-33.45 110.78-34.47L110.78-34.47Q110.73-35.01 110.83-35.33 110.93-35.64 110.88-35.99L110.88-35.99Q111.03-36.04 111.42-36.04 111.81-36.04 112.22-36.06 112.64-36.08 113-36.11 113.37-36.13 113.47-36.18L113.47-36.18Q113.81-35.94 114.15-35.94L114.15-35.94Q114.49-35.94 114.78-36.23L114.78-36.23Q115.03-36.13 115.05-36.08 115.08-36.04 115.32-36.04L115.32-36.04Q115.76-36.08 116.01-36.11 116.25-36.13 116.45-36.13L116.45-36.13Q116.98-35.74 117.1-35.18 117.23-34.62 117.28-34.01 117.32-33.4 117.35-32.79 117.37-32.18 117.37-31.79L117.37-31.79Q117.37-31.49 117.42-31.18 117.47-30.86 117.47-30.52L117.47-30.52Q117.47-30.27 117.45-30.03 117.42-29.79 117.42-29.54L117.42-29.54Q117.42-28.13 117.45-26.66 117.47-25.2 117.47-23.78L117.47-23.78Q117.47-21.24 117.4-18.68 117.32-16.11 117.32-13.57L117.32-13.57Q117.32-13.04 117.37-12.5 117.42-11.96 117.42-11.43L117.42-11.43Q117.42-11.13 117.4-10.84 117.37-10.55 117.37-10.25L117.37-10.25Q117.37-8.45 117.52-6.64L117.52-6.64Q117.71-6.69 118.35-6.91 118.98-7.13 119.67-7.4 120.35-7.67 120.94-7.93 121.52-8.2 121.67-8.35L121.67-8.35Q121.87-8.35 122.21-8.5 122.55-8.64 122.94-8.86 123.33-9.08 123.7-9.28 124.06-9.47 124.21-9.62L124.21-9.62Q124.16-10.6 124.16-11.6 124.16-12.6 124.16-13.57L124.16-13.57Q124.16-16.26 124.23-18.95 124.31-21.63 124.31-24.41L124.31-24.41Q124.31-26.12 124.26-27.83 124.21-29.54 124.21-31.25L124.21-31.25Q124.21-31.79 124.23-32.35 124.26-32.91 124.26-33.45L124.26-33.45Q124.26-34.28 124.23-35.08 124.21-35.89 124.31-36.72L124.31-36.72Q124.79-36.96 124.84-36.96L124.84-36.96Q125.14-36.96 125.26-36.96 125.38-36.96 125.48-36.87L125.48-36.87Q125.62-36.82 125.75-36.84 125.87-36.87 126.02-36.87L126.02-36.87Q126.26-36.87 126.5-36.77 126.75-36.67 126.99-36.67L126.99-36.67Q127.38-36.72 127.41-36.57 127.43-36.43 127.58-36.43L127.58-36.43Q127.97-36.57 128.12-36.43L128.12-36.43Q128.26-36.33 128.65-36.16 129.04-35.99 129.48-35.79 129.92-35.6 130.26-35.42 130.61-35.25 130.61-35.11L130.61-35.11Q130.75-34.33 130.7-33.45 130.65-32.57 130.65-31.79L130.65-31.79Q130.65-31.1 130.7-30.42 130.75-29.74 130.75-29.05L130.75-29.05Q130.75-28.66 130.75-28.27 130.75-27.88 130.8-27.54L130.8-27.54Q130.85-27.29 130.85-27.12 130.85-26.95 130.85-26.76L130.85-26.76Q130.85-26.51 130.95-26.12L130.95-26.12Q130.9-25.88 130.9-25.61 130.9-25.34 130.9-25.1L130.9-25.1Q130.9-24.41 130.95-23.68 131-22.95 131-22.22L131-22.22Q131-21.73 130.92-21.29 130.85-20.85 130.85-20.41L130.85-20.41 130.9-19.48Q130.9-18.99 130.95-18.51 131-18.02 131-17.48L131-17.48Q131-17.24 130.97-16.99 130.95-16.75 130.9-16.5L130.9-16.5Q130.85-16.26 130.85-15.97 130.85-15.67 130.85-15.43L130.85-15.43Q130.85-14.75 130.9-14.06 130.95-13.38 130.95-12.7L130.95-12.7Q130.95-12.26 130.92-11.84 130.9-11.43 130.9-10.99L130.9-10.99Q130.9-10.11 130.97-9.18 131.04-8.25 131.04-7.37L131.04-7.37Q131.04-6.98 130.95-6.54 130.85-6.1 130.56-5.86ZM146.33-35.99L146.33-35.99Q146.42-35.79 146.55-35.72 146.67-35.64 146.72-35.4L146.72-35.4Q147.06-35.16 147.25-35.03 147.45-34.91 147.5-34.62L147.5-34.62Q147.94-34.28 148.01-34.18 148.08-34.08 148.13-33.94L148.13-33.94Q148.38-33.74 148.6-33.59 148.82-33.45 148.91-33.15L148.91-33.15Q149.3-32.81 149.4-32.62 149.5-32.42 149.55-32.18L149.55-32.18Q149.35-31.84 148.77-31.25 148.18-30.66 147.45-30 146.72-29.35 146.03-28.74 145.35-28.13 144.96-27.78L144.96-27.78Q144.86-27.59 144.71-27.44 144.57-27.29 144.47-27.1L144.47-27.1Q144.18-26.86 143.93-26.59 143.69-26.32 143.35-26.17L143.35-26.17Q142.86-25.49 141.98-24.83 141.1-24.17 140.81-23.54L140.81-23.54Q140.86-23.39 141.03-23.24 141.2-23.1 141.3-23L141.3-23Q141.69-22.61 142.22-22.29 142.76-21.97 143.15-21.58L143.15-21.58Q143.54-21.24 143.93-20.92 144.32-20.61 144.71-20.26L144.71-20.26Q144.91-20.07 145.2-19.68L145.2-19.68Q145.69-19.29 146.15-18.97 146.62-18.65 147.06-18.26L147.06-18.26Q147.99-17.48 148.86-16.67 149.74-15.87 150.72-15.09L150.72-15.09 151.11-14.65Q151.11-14.26 151.33-13.75 151.55-13.23 151.75-12.89L151.75-12.89Q151.65-12.4 151.77-12.28 151.89-12.16 151.99-12.06L151.99-12.06Q151.94-11.13 152.04-10.84L152.04-10.84Q151.21-10.11 150.5-9.5 149.79-8.89 149.26-8.3L149.26-8.3Q148.82-7.76 148.35-7.35 147.89-6.93 147.35-6.45L147.35-6.45Q147.06-6.05 146.86-5.91L146.86-5.91Q146.52-5.57 146.18-5.37L146.18-5.37Q145.59-4.83 145.03-4.35 144.47-3.86 143.93-3.37L143.93-3.37Q143.54-3.03 143.2-2.71 142.86-2.39 142.52-2L142.52-2Q142.22-1.71 141.86-1.32 141.49-0.93 141.1-0.68L141.1-0.68Q140.95-0.39 140.71-0.17 140.47 0.05 140.27 0.29L140.27 0.29Q139.93 0.49 139.64 0.68 139.34 0.88 138.95 1.07L138.95 1.07Q138.56 0.78 138.2 0.54 137.83 0.29 137.39 0.2L137.39 0.2Q137.1-0.05 136.95-0.29 136.8-0.54 136.41-0.63L136.41-0.63Q136.32-0.78 136.19-0.95 136.07-1.12 135.97-1.32L135.97-1.32Q135.39-1.37 135.05-2.05L135.05-2.05Q135.14-2.34 135.31-2.49 135.49-2.64 135.39-3.03L135.39-3.03Q135.68-3.52 136.1-3.88 136.51-4.25 136.9-4.64L136.9-4.64Q137.34-5.03 137.71-5.44 138.07-5.86 138.51-6.25L138.51-6.25Q138.76-6.49 139-6.71 139.25-6.93 139.54-7.18L139.54-7.18Q140.08-7.71 140.64-8.18 141.2-8.64 141.78-9.18L141.78-9.18Q142.57-9.96 143.4-10.67 144.23-11.38 144.91-12.26L144.91-12.26Q144.86-12.45 144.76-12.52 144.67-12.6 144.62-12.74L144.62-12.74Q143.84-13.48 143.08-14.18 142.32-14.89 141.44-15.43L141.44-15.43Q141.15-15.72 141.05-15.92L141.05-15.92Q140.17-16.55 139.37-17.33 138.56-18.12 137.59-18.65L137.59-18.65Q137.39-18.9 137.12-19.07 136.85-19.24 136.61-19.38L136.61-19.38Q136.46-19.63 136.29-19.8 136.12-19.97 135.88-20.07L135.88-20.07Q135.49-20.41 135.36-20.63 135.24-20.85 134.95-20.9L134.95-20.9Q134.85-21.14 134.63-21.29 134.41-21.44 134.17-21.63L134.17-21.63Q134.07-21.92 133.87-22.12L133.87-22.12Q133.83-22.51 133.92-22.68 134.02-22.85 134.07-22.95L134.07-22.95Q134.02-23.24 133.8-23.39 133.58-23.54 133.58-23.88L133.58-23.88Q133.58-24.07 133.7-24.15 133.83-24.22 133.87-24.37L133.87-24.37 134.02-25.1Q134.41-25.39 134.68-25.81 134.95-26.22 135.39-26.46L135.39-26.46Q135.88-27.2 136.61-27.69L136.61-27.69Q136.85-28.08 137.22-28.32 137.59-28.56 137.83-28.96L137.83-28.96Q138.22-29.2 138.49-29.49 138.76-29.79 139.15-30.03L139.15-30.03Q139.25-30.22 139.37-30.35 139.49-30.47 139.54-30.62L139.54-30.62Q140.86-31.88 141.86-32.81 142.86-33.74 143.93-34.67L143.93-34.67Q144.23-34.91 144.52-35.21 144.81-35.5 145.15-35.74L145.15-35.74Q145.25-35.84 145.4-35.84 145.54-35.84 145.69-35.94L145.69-35.94Q146.28-35.94 146.33-35.99ZM162.73-13.33L162.73-13.33Q162.83-13.09 163.46-12.28 164.1-11.47 164.9-10.52 165.71-9.57 166.49-8.69 167.27-7.81 167.56-7.42L167.56-7.42Q168.49-6.05 169.47-4.74 170.44-3.42 171.32-2L171.32-2Q171.57-1.76 171.71-1.39 171.86-1.03 171.86-0.63L171.86-0.63Q171.86-0.2 171.64-0.17 171.42-0.15 171.18-0.05L171.18-0.05Q170.69 0.29 170.3 0.34 169.91 0.39 169.66 0.39L169.66 0.39Q169.13 0.39 168.49 0.37 167.86 0.34 167.42 0.44L167.42 0.44Q167.27 0.49 167.07 0.61 166.88 0.73 166.78 0.73L166.78 0.73Q166.39 0.73 166.22 0.61 166.05 0.49 165.76 0.39L165.76 0.39Q165.37-0.05 165.05-0.54 164.73-1.03 164.39-1.51L164.39-1.51Q164.1-1.86 163.75-2.12 163.41-2.39 163.12-2.78L163.12-2.78Q162.34-3.91 161.53-4.93 160.73-5.96 159.9-6.98L159.9-6.98Q159.51-7.52 159.04-8.01 158.58-8.5 158.19-8.98L158.19-8.98Q157.8-9.52 157.46-10.11 157.11-10.69 156.72-11.23L156.72-11.23Q156.43-11.72 155.89-12.43 155.36-13.13 154.77-13.87 154.18-14.6 153.57-15.26 152.96-15.92 152.52-16.26L152.52-16.26Q152.52-16.6 152.33-16.75 152.13-16.89 151.89-17.09L151.89-17.09Q151.79-17.33 151.65-17.55 151.5-17.77 151.5-18.07L151.5-18.07Q151.5-18.26 151.55-18.41 151.6-18.55 151.65-18.7L151.65-18.7Q151.74-18.9 151.77-19.07 151.79-19.24 151.89-19.43L151.89-19.43Q152.13-20.07 152.6-20.56 153.06-21.04 153.31-21.68L153.31-21.68Q153.35-21.88 153.35-22.05 153.35-22.22 153.45-22.41L153.45-22.41Q153.6-22.71 153.89-23 154.18-23.29 154.43-23.63L154.43-23.63Q154.67-24.07 154.92-24.51 155.16-24.95 155.4-25.39L155.4-25.39Q156.09-26.51 156.92-27.56 157.75-28.61 158.48-29.64L158.48-29.64Q159.16-30.62 159.75-31.57 160.34-32.52 161.02-33.5L161.02-33.5Q161.36-33.98 161.8-34.59 162.24-35.21 162.7-35.79 163.17-36.38 163.66-36.89 164.15-37.4 164.63-37.65L164.63-37.65Q165.46-37.74 165.71-37.38 165.95-37.01 166.39-37.01L166.39-37.01Q167.07-36.87 167.32-36.57 167.56-36.28 167.81-36.04L167.81-36.04Q168.44-36.04 168.88-35.79 169.32-35.55 169.76-35.06L169.76-35.06Q169.57-34.52 169.25-34.08 168.93-33.64 168.69-33.15L168.69-33.15Q168.3-33.01 168.12-32.67 167.95-32.32 167.61-32.08L167.61-32.08Q167.07-31.25 166.54-30.44 166-29.64 165.46-28.91L165.46-28.91Q165.22-28.61 164.9-28.44 164.58-28.27 164.39-27.93L164.39-27.93Q164.29-27.78 164.24-27.61 164.19-27.44 164.1-27.29L164.1-27.29Q163.51-26.37 162.78-25.49 162.05-24.61 161.51-23.63L161.51-23.63Q161.26-23.29 161.12-22.92 160.97-22.56 160.78-22.22L160.78-22.22Q160.58-21.92 160.21-21.39 159.85-20.85 159.48-20.29 159.12-19.73 158.85-19.21 158.58-18.7 158.58-18.36L158.58-18.36Q158.63-18.12 159.21-17.38 159.8-16.65 160.51-15.82 161.22-14.99 161.87-14.26 162.53-13.53 162.73-13.33ZM197.79-19.38L197.79-19.38Q197.69-19.19 197.59-19.02 197.49-18.85 197.44-18.65L197.44-18.65Q197.64-18.46 197.81-18.24 197.98-18.02 197.98-17.77L197.98-17.77Q197.98-17.58 197.91-17.41 197.83-17.24 197.88-17.09L197.88-17.09Q197.69-16.75 197.47-16.46 197.25-16.16 197.15-15.82L197.15-15.82Q196.96-15.63 196.83-15.43 196.71-15.23 196.61-15.04L196.61-15.04Q196.37-14.94 196.3-14.72 196.22-14.5 196.03-14.36L196.03-14.36Q195.98-14.16 195.54-13.43 195.1-12.7 194.56-11.87 194.03-11.04 193.54-10.25 193.05-9.47 192.85-9.23L192.85-9.23Q192.76-8.98 192.63-8.84 192.51-8.69 192.37-8.5L192.37-8.5Q192.27-8.35 192.22-8.18 192.17-8.01 192.07-7.91L192.07-7.91Q191.97-7.71 191.85-7.57 191.73-7.42 191.63-7.18L191.63-7.18Q191.14-6.54 190.66-5.66 190.17-4.79 189.73-4.1L189.73-4.1Q189.48-3.71 189.26-3.32 189.05-2.93 188.8-2.54L188.8-2.54Q188.56-2.15 188.31-1.81 188.07-1.46 187.82-1.07L187.82-1.07Q187.43-0.78 187.14-0.37 186.85 0.05 186.46 0.34L186.46 0.34Q185.82 0.34 185.68-0.24L185.68-0.24Q185.04-0.39 185.04-0.24 185.04-0.1 185.04 0L185.04 0Q184.85 0.1 184.77 0.29 184.7 0.49 184.5 0.59L184.5 0.59Q184.11 0.49 183.84 0.27 183.58 0.05 183.09 0.1L183.09 0.1Q182.89-0.2 182.65-0.42 182.4-0.63 182.21-0.88L182.21-0.88Q182.11-1.17 181.94-1.37 181.77-1.56 181.62-1.76L181.62-1.76Q181.48-2 181.33-2.2 181.18-2.39 181.04-2.59L181.04-2.59Q180.7-3.03 180.38-3.44 180.06-3.86 179.82-4.3L179.82-4.3Q179.43-4.88 179.06-5.49 178.69-6.1 178.3-6.69L178.3-6.69Q178.11-6.98 177.91-7.28 177.72-7.57 177.57-7.86L177.57-7.86Q177.47-8.11 177.3-8.45 177.13-8.79 176.89-8.89L176.89-8.89Q176.79-9.28 176.55-9.47 176.3-9.67 176.06-9.96L176.06-9.96Q175.71-10.35 175.42-10.82 175.13-11.28 174.84-11.77L174.84-11.77Q173.86-13.13 173-14.45 172.15-15.77 171.32-17.19L171.32-17.19Q171.56-17.97 171.56-18.36 171.56-18.75 171.81-18.99L171.81-18.99Q171.81-19.19 171.91-19.58L171.91-19.58Q172.54-20.65 173.13-21.53L173.13-21.53Q173.66-22.36 173.88-22.9 174.1-23.44 174.35-24.02L174.35-24.02Q174.59-24.17 174.74-24.39 174.88-24.61 175.13-24.8L175.13-24.8Q175.23-25.34 175.57-25.71 175.91-26.07 176.01-26.61L176.01-26.61Q176.45-26.95 176.5-27.39L176.5-27.39Q177.13-27.83 177.28-28.56L177.28-28.56Q177.67-28.96 177.94-29.44 178.21-29.93 178.45-30.47L178.45-30.47Q179.04-30.96 179.38-31.74L179.38-31.74Q179.67-31.93 179.82-32.28 179.96-32.62 180.21-32.86L180.21-32.86Q180.6-33.5 180.82-33.91 181.04-34.33 181.28-34.77L181.28-34.77Q181.62-34.77 181.72-35.01 181.82-35.25 182.11-35.21L182.11-35.21Q182.11-35.64 182.36-35.99L182.36-35.99Q182.45-36.04 182.65-36.11 182.84-36.18 182.84-36.28L182.84-36.28Q182.75-36.87 182.89-36.96 183.04-37.06 183.14-37.16L183.14-37.16Q183.67-37.06 183.87-37.01 184.06-36.96 184.5-36.67L184.5-36.67Q184.99-36.67 185.19-36.47 185.38-36.28 185.63-36.18L185.63-36.18Q185.82-35.99 185.94-35.79 186.07-35.6 186.31-35.5L186.31-35.5Q186.7-34.96 187.14-34.33 187.58-33.69 187.97-33.15L187.97-33.15Q188.51-32.42 189.07-31.76 189.63-31.1 190.12-30.32L190.12-30.32Q190.27-30.08 190.66-29.47 191.05-28.86 191.54-28.17 192.02-27.49 192.41-26.93 192.8-26.37 192.95-26.27L192.95-26.27Q193.1-26.03 193.59-25.34 194.07-24.66 194.64-23.9 195.2-23.14 195.73-22.46 196.27-21.78 196.47-21.58L196.47-21.58Q197-20.85 197.27-20.39 197.54-19.92 197.79-19.38ZM186.6-10.21L186.6-10.21Q187.14-10.94 187.43-11.52 187.73-12.11 188.02-12.7L188.02-12.7Q188.51-13.28 188.61-13.53 188.7-13.77 188.85-14.01L188.85-14.01Q189.24-14.6 189.66-15.19 190.07-15.77 190.31-16.46L190.31-16.46Q190.61-16.65 190.75-16.94 190.9-17.24 191.19-17.48L191.19-17.48Q190.9-18.51 190.51-19.07 190.12-19.63 189.73-20.17L189.73-20.17Q189.58-20.41 189.44-20.65 189.29-20.9 189.14-21.14L189.14-21.14Q188.95-21.29 188.83-21.44 188.7-21.58 188.56-21.73L188.56-21.73Q188.46-21.97 188.26-22.36L188.26-22.36Q188.07-22.61 187.87-22.8 187.68-23 187.53-23.29L187.53-23.29Q187.34-23.49 187.04-23.83 186.75-24.17 186.43-24.58 186.12-25 185.87-25.37 185.63-25.73 185.48-25.98L185.48-25.98Q185.38-26.22 185.31-26.39 185.24-26.56 185.14-26.76L185.14-26.76Q184.89-27.1 184.65-27.37 184.41-27.64 184.16-27.98L184.16-27.98Q184.02-27.88 183.89-27.86 183.77-27.83 183.67-27.73L183.67-27.73Q183.33-27.1 182.92-26.56 182.5-26.03 182.11-25.39L182.11-25.39Q181.77-24.8 181.43-24.19 181.09-23.58 180.74-23L180.74-23Q180.5-22.66 180.28-22.34 180.06-22.02 179.82-21.63L179.82-21.63Q179.57-21.29 179.4-20.92 179.23-20.56 178.99-20.21L178.99-20.21Q178.6-19.73 178.35-19.34 178.11-18.95 177.86-18.41L177.86-18.41Q178.01-18.12 178.33-17.6 178.64-17.09 178.99-16.58 179.33-16.06 179.6-15.63 179.87-15.19 179.91-15.04L179.91-15.04Q180.3-14.7 180.55-14.28 180.79-13.87 181.18-13.48L181.18-13.48Q181.38-13.09 181.62-12.79 181.87-12.5 182.11-12.16L182.11-12.16Q182.36-11.82 182.75-11.16 183.14-10.5 183.53-9.81 183.92-9.13 184.31-8.54 184.7-7.96 184.94-7.81L184.94-7.81Q185.43-8.35 185.75-9.01 186.07-9.67 186.6-10.21ZM201.15 0.59L201.15 0.59Q200.96 0.39 200.96 0.05L200.96 0.05Q200.96-0.2 200.98-0.37 201.01-0.54 201.05-0.78L201.05-0.78Q201.3-1.9 201.3-3.05 201.3-4.2 201.4-5.32L201.4-5.32Q201.44-6.01 201.47-6.69 201.49-7.37 201.49-8.06L201.49-8.06Q201.49-12.11 201.25-16.14 201.01-20.17 201.01-24.27L201.01-24.27Q201.01-27.1 201.1-29.96 201.2-32.81 201.25-35.69L201.25-35.69Q201.69-35.94 202.32-35.89 202.96-35.84 203.35-36.33L203.35-36.33Q203.59-36.38 203.84-36.35 204.08-36.33 204.33-36.33L204.33-36.33Q204.86-36.33 205.35-36.67 205.84-37.01 206.43-37.26L206.43-37.26Q206.72-37.16 206.84-37.18 206.96-37.21 207.11-37.21L207.11-37.21Q207.26-37.21 207.74-36.87 208.23-36.52 208.82-36.08 209.4-35.64 209.92-35.25 210.43-34.86 210.58-34.77L210.58-34.77Q211.8-33.84 212.75-32.74 213.7-31.64 214.63-30.52L214.63-30.52Q215.51-29.39 216.53-28.25 217.56-27.1 218.53-26.12L218.53-26.12Q218.88-25.73 219.24-25.44 219.61-25.15 219.95-24.76L219.95-24.76Q220.1-24.56 220.22-24.34 220.34-24.12 220.49-23.88L220.49-23.88Q220.78-23.54 221.17-23.29 221.56-23.05 221.9-22.71L221.9-22.71Q222.15-22.51 222.64-21.92 223.12-21.34 223.12-21.04L223.12-21.04Q223.12-20.85 223.03-20.7 222.93-20.56 222.83-20.36L222.83-20.36Q222.78-20.21 222.78-19.92 222.78-19.63 222.73-19.53L222.73-19.53Q222.25-19.14 222.2-19.04 222.15-18.95 222.05-18.85L222.05-18.85Q221.9-18.65 221.68-18.53 221.46-18.41 221.37-18.16L221.37-18.16Q221.27-18.02 221.29-17.87 221.32-17.72 221.22-17.53L221.22-17.53Q220.98-16.99 220.44-16.5 219.9-16.02 219.51-15.43L219.51-15.43Q218.97-14.55 218.44-13.67 217.9-12.79 217.22-11.96L217.22-11.96Q216.92-11.57 216.61-11.21 216.29-10.84 216-10.45L216-10.45Q215.75-10.16 215.56-9.84 215.36-9.52 215.12-9.13L215.12-9.13Q214.58-8.45 214.09-7.79 213.6-7.13 213.07-6.45L213.07-6.45Q212.48-5.62 211.8-4.81 211.11-4 210.58-3.17L210.58-3.17Q210.04-2.29 209.45-1.56 208.87-0.83 208.18-0.15L208.18-0.15Q207.99 0 207.69 0.29 207.4 0.59 207.11 0.59L207.11 0.59Q206.91 0.59 206.79 0.44 206.67 0.29 206.43 0.29L206.43 0.29Q206.38 0.29 206.13 0.34 205.89 0.39 205.55 0.44L205.55 0.44 204.67 0.54Q203.89 0.93 203.54 0.9 203.2 0.88 202.86 0.93L202.86 0.93Q202.67 0.98 202.54 1.07 202.42 1.17 202.27 1.17L202.27 1.17Q201.93 1.17 201.74 0.85 201.54 0.54 201.15 0.59ZM215.8-20.51L215.8-20.51Q215.8-20.75 215.34-21.19 214.87-21.63 214.63-21.83L214.63-21.83Q214.29-22.12 213.82-22.39 213.36-22.66 213.07-23L213.07-23Q212.82-23.29 212.6-23.61 212.38-23.93 212.14-24.22L212.14-24.22Q211.26-25.2 210.36-26.17 209.45-27.15 208.77-28.32L208.77-28.32Q208.33-28.61 207.94-29 207.55-29.39 207.01-29.64L207.01-29.64Q206.91-29.35 206.94-29.03 206.96-28.71 206.96-28.42L206.96-28.42Q206.96-27.29 206.86-26.22 206.77-25.15 206.77-24.07L206.77-24.07Q206.77-21.44 206.89-18.87 207.01-16.31 207.01-13.72L207.01-13.72Q207.01-12.74 207.04-11.77 207.06-10.79 207.21-9.81L207.21-9.81Q207.11-9.52 207.11-9.28L207.11-9.28Q207.11-9.03 207.21-8.64L207.21-8.64Q207.6-8.89 207.87-9.25 208.13-9.62 208.38-9.96L208.38-9.96Q209.21-11.04 210.01-12.13 210.82-13.23 211.65-14.36L211.65-14.36Q212.19-15.09 212.75-15.8 213.31-16.5 213.85-17.29L213.85-17.29Q213.99-17.48 214.31-17.97 214.63-18.46 214.95-18.97 215.26-19.48 215.53-19.92 215.8-20.36 215.8-20.51ZM233.03-12.79L233.03-12.79Q233.13-12.55 233.74-11.77 234.35-10.99 235.13-10.06 235.92-9.13 236.62-8.28 237.33-7.42 237.62-7.03L237.62-7.03Q238.16-6.35 238.67-5.69 239.19-5.03 239.63-4.3L239.63-4.3 240.5-2.83Q240.9-2.34 241.21-2 241.53-1.66 241.73-1.07L241.73-1.07Q241.82-0.68 241.82-0.54L241.82-0.54Q241.82-0.2 241.58-0.05L241.58-0.05Q241.19-0.05 241.16 0.07 241.14 0.2 240.94 0.29L240.94 0.29Q240.75 0.39 240.33 0.42 239.92 0.44 239.67 0.44L239.67 0.44Q239.24 0.44 238.58 0.42 237.92 0.39 237.53 0.54L237.53 0.54Q237.43 0.59 237.23 0.68 237.04 0.78 236.94 0.78L236.94 0.78Q236.55 0.78 236.38 0.66 236.21 0.54 235.92 0.49L235.92 0.49Q235.52 0.05 235.26-0.42 234.99-0.88 234.65-1.37L234.65-1.37Q234.3-1.71 233.96-1.98 233.62-2.25 233.38-2.59L233.38-2.59Q232.64-3.66 231.86-4.69 231.08-5.71 230.25-6.69L230.25-6.69Q229.86-7.23 229.42-7.67 228.98-8.11 228.59-8.64L228.59-8.64Q228.2-9.13 227.86-9.69 227.52-10.25 227.17-10.79L227.17-10.79Q226.88-11.23 226.39-11.94 225.91-12.65 225.32-13.35 224.73-14.06 224.15-14.7 223.56-15.33 223.17-15.67L223.17-15.67Q223.12-15.97 222.93-16.14 222.73-16.31 222.49-16.46L222.49-16.46Q222.39-16.7 222.27-16.92 222.15-17.14 222.15-17.38L222.15-17.38Q222.15-17.72 222.29-18.02L222.29-18.02Q222.39-18.21 222.41-18.38 222.44-18.55 222.54-18.75L222.54-18.75Q222.78-19.29 223.2-19.8 223.61-20.31 223.85-20.9L223.85-20.9Q223.95-21.04 223.95-21.22 223.95-21.39 224.05-21.53L224.05-21.53Q224.15-21.92 224.46-22.19 224.78-22.46 224.98-22.8L224.98-22.8Q225.22-23.19 225.44-23.61 225.66-24.02 225.91-24.51L225.91-24.51Q226.64-25.73 227.44-26.88 228.25-28.03 229.08-29.2L229.08-29.2Q229.71-30.18 230.32-31.08 230.93-31.98 231.57-32.91L231.57-32.91Q231.91-33.35 232.3-33.94 232.69-34.52 233.16-35.11 233.62-35.69 234.11-36.18 234.6-36.67 235.08-36.96L235.08-36.96Q235.82-37.01 236.06-36.65 236.31-36.28 236.79-36.28L236.79-36.28Q237.43-36.13 237.62-35.89 237.82-35.64 238.06-35.4L238.06-35.4Q238.75-35.4 239.16-35.16 239.58-34.91 239.97-34.42L239.97-34.42Q239.82-33.89 239.53-33.47 239.24-33.06 238.99-32.62L238.99-32.62Q238.6-32.42 238.43-32.08 238.26-31.74 237.92-31.54L237.92-31.54Q237.43-30.71 236.89-29.96 236.35-29.2 235.82-28.47L235.82-28.47Q235.52-28.03 235.21-27.69 234.89-27.34 234.65-26.95L234.65-26.95Q234.55-26.81 234.47-26.64 234.4-26.46 234.3-26.32L234.3-26.32Q233.72-25.39 233.03-24.58 232.35-23.78 231.76-22.8L231.76-22.8Q231.57-22.46 231.45-22.09 231.33-21.73 231.13-21.39L231.13-21.39Q230.93-21.09 230.57-20.61 230.2-20.12 229.86-19.56 229.52-18.99 229.25-18.48 228.98-17.97 228.98-17.63L228.98-17.63Q229.03-17.38 229.59-16.67 230.15-15.97 230.86-15.16 231.57-14.36 232.2-13.65 232.84-12.94 233.03-12.79ZM236.26-21.68L236.26-21.68Q236.6-20.95 236.99-20.41L236.99-20.41Q237.14-20.21 237.33-20.07 237.53-19.92 237.62-19.68L237.62-19.68Q237.72-19.58 237.82-19.26 237.92-18.95 238.01-18.8L238.01-18.8Q238.16-18.41 238.6-17.92 239.04-17.43 239.04-17.04L239.04-17.04Q239.04-16.8 238.94-16.5 238.84-16.21 238.8-15.97L238.8-15.97Q238.75-15.67 238.75-15.36 238.75-15.04 238.55-14.79L238.55-14.79Q238.31-14.55 238.01-14.5 237.72-14.45 237.48-14.26L237.48-14.26Q237.38-14.16 237.18-13.92 236.99-13.67 236.79-13.38 236.6-13.09 236.43-12.82 236.26-12.55 236.26-12.4L236.26-12.4Q235.67-12.35 235.5-12.38 235.33-12.4 235.13-12.35L235.13-12.35Q234.89-12.6 234.62-12.77 234.35-12.94 233.96-13.09L233.96-13.09Q233.86-13.48 233.52-13.99 233.18-14.5 232.94-14.84L232.94-14.84 232.59-15.28Q231.86-16.31 231.25-17.26 230.64-18.21 230.35-19.38L230.35-19.38Q231.28-20.07 231.79-20.41 232.3-20.75 232.89-21.04 233.47-21.34 234.04-21.61 234.6-21.88 235.08-22.27L235.08-22.27Q235.48-22.27 235.62-22.22 235.77-22.17 235.82-22.12 235.87-22.07 235.94-21.95 236.01-21.83 236.26-21.68Z" fill="#8bc53f" data-fill-palette-color="primary"></path></g></svg></g></svg></g></svg></g></svg></g><g transform="matrix(1,0,0,1,410.71803006709155,0)"><svg viewBox="0 0 78.56768053406518 88.96998234772083" height="88.96998234772083" width="78.56768053406518"><g><svg xmlns="http://www.w3.org/2000/svg" xmlns:xlink="http://www.w3.org/1999/xlink" version="1.1" x="0" y="0" viewBox="19.5 15.461823276781704 61 69.0763541232183" style="enable-background:new 0 0 100 100;" xml:space="preserve" height="88.96998234772083" width="78.56768053406518" class="icon-icon-0" data-fill-palette-color="accent" id="icon-0"><path d="M72.218 63.11l-12.21-3.771c0 0 0 0 0-0.001l-1.648-0.508V56.456l1.806-1.548c2.532-2.177 3.984-5.34 3.984-8.68v-0.98h0.69c2.448 0 4.44-1.992 4.44-4.44v-2.09c0-0.805-0.317-1.572-0.9-2.167-0.456-0.446-1.023-0.732-1.632-0.84 0.129-1.749 0.44-7.69-1.002-10.998-3.816-8.759-14.321-10.336-20.558-8.658-4.015 1.08-6.141 4.116-6.743 5.11-1.448-0.168-2.643 0.218-3.565 1.15-3.036 3.062-2.015 11.227-1.679 13.4-0.594 0.114-1.146 0.401-1.598 0.844-0.575 0.588-0.893 1.355-0.893 2.159v2.09c0 2.448 1.992 4.44 4.44 4.44h0.69v0.98c0 3.339 1.452 6.503 3.986 8.681l1.804 1.542v2.379l-1.648 0.508c0 0 0 0 0 0.001l-12.212 3.772C22.823 64.676 19.5 69.208 19.5 74.388v9.65c0 0.276 0.224 0.5 0.5 0.5h60c0.276 0 0.5-0.224 0.5-0.5v-9.65C80.5 69.207 77.173 64.675 72.218 63.11zM40.63 60.185l1-0.309v1.132c0 1.689 0.831 3.278 2.224 4.25 1.808 1.263 3.93 1.93 6.136 1.93 2.214 0 4.339-0.667 6.146-1.93 1.393-0.972 2.225-2.561 2.224-4.25v-1.132l1 0.309v0.823c0 2.015-0.991 3.911-2.651 5.07-1.976 1.38-4.299 2.11-6.719 2.11-2.413 0-4.733-0.729-6.71-2.11-1.659-1.16-2.65-3.055-2.65-5.07V60.185zM61.763 38.958c-0.249-0.486-0.749-0.822-1.33-0.822h-7.609c-0.827 0-1.5 0.673-1.5 1.5v0.317h-2.648v-0.317c0-0.827-0.673-1.5-1.5-1.5h-7.609c-0.582 0-1.082 0.337-1.331 0.823l-1.343-0.554c0.344-2.2 1.287-6.894 2.533-8.804l2.308 2.992c0.111 0.146 0.296 0.218 0.478 0.188s0.332-0.158 0.392-0.331L44.125 27.988c2.271-0.317 17.029-1.987 19.025 7.601v2.795L61.763 38.958zM52.324 39.636c0-0.276 0.225-0.5 0.5-0.5h7.609c0.275 0 0.5 0.224 0.5 0.5v1.569c0 0.827-0.673 1.5-1.5 1.5h-5.609c-0.827 0-1.5-0.673-1.5-1.5V39.636zM47.676 41.205c0 0.827-0.673 1.5-1.5 1.5h-5.609c-0.827 0-1.5-0.673-1.5-1.5v-1.569c0-0.276 0.225-0.5 0.5-0.5h7.609c0.275 0 0.5 0.224 0.5 0.5V41.205zM68.28 38.718v2.09c0 1.897-1.543 3.44-3.44 3.44h-0.69v-1.96c0.127 0.038 0.258 0.065 0.397 0.065 0.769 0 1.394-0.625 1.393-1.394 0-0.276-0.224-0.5-0.5-0.5s-0.5 0.224-0.5 0.5c0 0.217-0.177 0.394-0.393 0.394s-0.393-0.177-0.393-0.394c0-0.007-0.004-0.013-0.004-0.019v-0.65c0-0.007 0.004-0.013 0.004-0.02 0-0.625 0.509-1.134 1.134-1.134s1.134 0.509 1.134 1.134c0 0.276 0.224 0.5 0.5 0.5s0.5-0.224 0.5-0.5c0-1.177-0.957-2.134-2.134-2.134-0.408 0-0.787 0.121-1.111 0.321 0.13-1.011 0.987-1.798 2.033-1.799 0.548 0 1.07 0.216 1.463 0.6C68.064 37.658 68.28 38.177 68.28 38.718zM35.59 23.019c0.763-0.77 1.756-1.038 3.035-0.818 0.21 0.035 0.428-0.069 0.528-0.262 0.02-0.038 2.006-3.764 6.295-4.918C51.34 15.434 61.25 16.899 64.83 25.113c1.347 3.092 1.032 8.968 0.916 10.58-0.031 0.005-0.059 0.015-0.09 0.021-0.056 0.01-0.109 0.025-0.164 0.038-0.128 0.031-0.252 0.07-0.374 0.116-0.052 0.02-0.105 0.039-0.155 0.062-0.151 0.068-0.296 0.145-0.433 0.235-0.011 0.007-0.023 0.012-0.034 0.02-0.122 0.083-0.237 0.174-0.346 0.273v-0.92c0-0.033-0.003-0.067-0.009-0.099v0c-1.438-7.09-9.005-8.608-14.523-8.742-0.552-0.013-1.083-0.013-1.586-0.003-0.503 0.01-0.977 0.03-1.413 0.055-1.748 0.101-2.907 0.289-2.953 0.296-0.181 0.031-0.33 0.158-0.39 0.332l-1.319 3.869-2.132-2.763c-0.088-0.115-0.222-0.186-0.366-0.194-0.143-0.004-0.286 0.046-0.388 0.15-0.114 0.117-0.224 0.257-0.332 0.408-0.031 0.042-0.061 0.087-0.091 0.132-0.085 0.127-0.169 0.263-0.251 0.408-0.022 0.039-0.044 0.075-0.066 0.115-0.099 0.184-0.196 0.38-0.289 0.586-0.023 0.052-0.046 0.106-0.07 0.158-0.074 0.169-0.146 0.344-0.217 0.524-0.023 0.06-0.047 0.119-0.069 0.18-0.088 0.233-0.173 0.471-0.256 0.716-0.003 0.008-0.005 0.016-0.007 0.023-0.082 0.246-0.16 0.498-0.236 0.752-0.014 0.048-0.028 0.095-0.042 0.143-0.436 1.486-0.768 3.044-0.987 4.211-0.035-0.044-0.08-0.079-0.117-0.121-0.061-0.068-0.123-0.133-0.19-0.195-0.074-0.068-0.152-0.131-0.232-0.191-0.073-0.056-0.147-0.11-0.226-0.159-0.086-0.054-0.175-0.1-0.266-0.145-0.083-0.041-0.166-0.082-0.253-0.115-0.096-0.037-0.194-0.064-0.294-0.091-0.091-0.025-0.181-0.05-0.276-0.067-0.032-0.006-0.062-0.018-0.094-0.022C33.923 33.838 32.859 25.774 35.59 23.019zM35.15 44.248c-1.897 0-3.44-1.543-3.44-3.44v-2.09c0-0.542 0.216-1.061 0.6-1.452 0.4-0.392 0.922-0.607 1.47-0.608 1.046 0 1.903 0.787 2.033 1.798-0.324-0.199-0.702-0.32-1.11-0.32-1.177 0-2.135 0.958-2.135 2.134 0 0.276 0.224 0.5 0.5 0.5s0.5-0.224 0.5-0.5c0-0.625 0.509-1.134 1.135-1.134 0.625 0 1.134 0.509 1.134 1.134 0 0.005 0.003 0.009 0.003 0.015v0.66c0 0.005-0.003 0.009-0.003 0.014 0 0.217-0.177 0.394-0.394 0.394s-0.393-0.177-0.392-0.394c0-0.276-0.224-0.5-0.5-0.5s-0.5 0.224-0.5 0.5c0 0.769 0.625 1.394 1.392 1.394 0.139 0 0.27-0.027 0.397-0.065v1.96H35.15zM36.84 46.228l-0.001-1.475c0-0.002 0.001-0.003 0.001-0.005v-5.283l1.227 0.506v1.234c0 1.378 1.121 2.5 2.5 2.5h5.609c1.379 0 2.5-1.122 2.5-2.5v-0.252h2.648v0.252c0 1.378 1.121 2.5 2.5 2.5h5.609c1.379 0 2.5-1.122 2.5-2.5v-1.235l1.217-0.504v5.282 1.48c0 3.047-1.325 5.935-3.634 7.92l-1.964 1.684c-0.005 0.004-0.013 0.004-0.018 0.008l-1.529 1.318c-0.79 0.677-1.67 1.207-2.616 1.575-2.185 0.854-4.626 0.849-6.78-0.001-0.937-0.36-1.816-0.889-2.614-1.574l-1.54-1.32c-0.002-0.002-0.005-0.001-0.007-0.003l-1.971-1.686C38.165 52.163 36.84 49.275 36.84 46.228zM43.345 57.918c0.885 0.758 1.862 1.346 2.901 1.746C47.432 60.131 48.729 60.378 50 60.378c1.278 0 2.54-0.24 3.751-0.713 1.051-0.408 2.028-0.996 2.905-1.748l0.704-0.604v1.885 1.81c0 1.363-0.672 2.645-1.797 3.431-1.638 1.145-3.565 1.75-5.573 1.749-0.5 0-0.996-0.038-1.483-0.112-1.462-0.224-2.852-0.779-4.081-1.638-1.124-0.785-1.796-2.068-1.796-3.43v-1.81-1.891L43.345 57.918zM79.5 83.538H68.191V78.483c0-0.276-0.224-0.5-0.5-0.5s-0.5 0.224-0.5 0.5v5.055H32.809V78.483c0-0.276-0.224-0.5-0.5-0.5s-0.5 0.224-0.5 0.5v5.055H20.5v-9.15c0-4.742 3.042-8.891 7.567-10.322l11.563-3.572v0.514c0 2.341 1.15 4.543 3.078 5.89 2.145 1.499 4.663 2.291 7.282 2.29 2.626 0 5.147-0.792 7.291-2.29 1.928-1.347 3.079-3.548 3.079-5.89V60.494l11.56 3.571C76.454 65.496 79.5 69.645 79.5 74.388V83.538z" fill="#5d9943" data-fill-palette-color="accent"></path></svg></g></svg></g></svg></g><defs></defs></svg><rect width="395.52" height="71.91995730865587" fill="none" stroke="none" visibility="hidden"></rect></g></svg></g></svg>